  0
SECTION
  2
HEADER
  9
$ACADVER
  1
AC1009
  9
$EXTMIN
 10
-13.900000
 20
-10.500000
 30
-42.000000
  9
$EXTMAX
 10
92.900000
 20
55.500000
 30
222.000000
  0
ENDSEC
  0
SECTION
  2
TABLES
  0
TABLE
  2
LTYPE
  0
LTYPE
  2
CONTINUOUS
 70
  0
  3
Solid line
 72
 65
 73
  0
 40
0.0
  0
LTYPE
  2
DASHED
 70
 64
  3
__ __ __ __ __ __ __ __ __ __ __ __ __ __ __
 72
 65
 73
  2
 40
0.75
 49
0.5
 49
-0.25
  0
ENDTAB
  0
TABLE
  2
LAYER
 70
 76
  0
LAYER
  2
G00
 70
  0
 62
253
  6
DASHED
  0
LAYER
  2
G01
 70
  0
 62
  4
  6
CONTINUOUS
  0
LAYER
  2
G01Z
 70
  0
 62
  2
  6
CONTINUOUS
  0
LAYER
  2
G41
 70
  0
 62
  4
  6
CONTINUOUS
  0
LAYER
  2
G42
 70
  0
 62
  4
  6
CONTINUOUS
  0
LAYER
  2
G02
 70
  0
 62
  4
  6
CONTINUOUS
  0
LAYER
  2
G41D
 70
  0
 62
  6
  6
CONTINUOUS
  0
LAYER
  2
G42D
 70
  0
 62
  6
  6
CONTINUOUS
  0
LAYER
  2
G81
 70
  0
 62
110
  6
CONTINUOUS
  0
LAYER
  2
WIRE_TOP
 70
  0
 62
190
  6
CONTINUOUS
  0
LAYER
  2
WIRE_UV
 70
  0
 62
110
  6
CONTINUOUS
  0
LAYER
  2
WIRE_BOTTOM
 70
  0
 62
216
  6
CONTINUOUS
  0
LAYER
  2
G40
 70
  0
 62
  4
  6
CONTINUOUS
  0
ENDTAB
  0
ENDSEC
  0
SECTION
  2
ENTITIES
  0
LINE
  8
G00
  6
DASHED
 10
0.000000
 20
0.000000
 30
200.000000
 11
0.000000
 21
0.000000
 31
0.000000
  0
LINE
  8
G01
  6
CONTINUOUS
 10
0.000000
 20
0.000000
 30
0.000000
 11
5.000000
 21
0.000000
 31
0.000000
  0
CIRCLE
  8
G02
  6
CONTINUOUS
 10
0.000000
 20
0.000000
 30
0.000000
 40
5.000000
210
0.000000
220
0.000000
230
1.000000
  0
LINE
  8
G00
  6
DASHED
 10
5.000000
 20
0.000000
 30
-5.000000
 11
0.000000
 21
0.000000
 31
200.000000
  0
LINE
  8
G00
  6
DASHED
 10
0.000000
 20
0.000000
 30
200.000000
 11
10.000000
 21
10.000000
 31
200.000000
  0
LINE
  8
G00
  6
DASHED
 10
10.000000
 20
10.000000
 30
200.000000
 11
0.020000
 21
10.000000
 31
200.000000
  0
LINE
  8
G00
  6
DASHED
 10
0.020000
 20
10.000000
 30
200.000000
 11
0.000000
 21
0.000000
 31
200.000000
  0
LINE
  8
G00
  6
DASHED
 10
0.000000
 20
0.000000
 30
200.000000
 11
0.000000
 21
0.000000
 31
100.000000
  0
LINE
  8
G01
  6
CONTINUOUS
 10
0.000000
 20
0.000000
 30
100.000000
 11
30.000000
 21
30.000000
 31
100.000000
  0
LINE
  8
G00
  6
DASHED
 10
30.000000
 20
30.000000
 30
100.000000
 11
0.000000
 21
0.000000
 31
100.000000
  0
LINE
  8
G01
  6
CONTINUOUS
 10
0.000000
 20
0.000000
 30
100.000000
 11
40.000000
 21
40.000000
 31
100.000000
  0
LINE
  8
G00
  6
DASHED
 10
40.000000
 20
40.000000
 30
100.000000
 11
0.000000
 21
0.000000
 31
200.000000
  0
LINE
  8
G00
  6
DASHED
 10
0.000000
 20
0.000000
 30
200.000000
 11
0.000000
 21
0.000000
 31
100.000000
  0
LINE
  8
G01
  6
CONTINUOUS
 10
0.000000
 20
0.000000
 30
100.000000
 11
30.000000
 21
30.000000
 31
100.000000
  0
LINE
  8
G41
  6
CONTINUOUS
 10
30.000000
 20
30.000000
 30
100.000000
 11
40.000000
 21
30.000000
 31
100.000000
  0
LINE
  8
G41
  6
CONTINUOUS
 10
40.000000
 20
30.000000
 30
100.000000
 11
40.000000
 21
40.000000
 31
100.000000
  0
LINE
  8
G41
  6
CONTINUOUS
 10
40.000000
 20
40.000000
 30
100.000000
 11
30.000000
 21
40.000000
 31
100.000000
  0
LINE
  8
G40
  6
CONTINUOUS
 10
30.000000
 20
40.000000
 30
100.000000
 11
30.000000
 21
30.000000
 31
100.000000
  0
LINE
  8
G00
  6
DASHED
 10
30.000000
 20
30.000000
 30
100.000000
 11
0.000000
 21
0.000000
 31
100.000000
  0
LINE
  8
G01
  6
CONTINUOUS
 10
0.000000
 20
0.000000
 30
100.000000
 11
40.000000
 21
40.000000
 31
100.000000
  0
LINE
  8
G41
  6
CONTINUOUS
 10
40.000000
 20
40.000000
 30
100.000000
 11
50.000000
 21
40.000000
 31
100.000000
  0
LINE
  8
G41
  6
CONTINUOUS
 10
50.000000
 20
40.000000
 30
100.000000
 11
50.000000
 21
50.000000
 31
100.000000
  0
LINE
  8
G41
  6
CONTINUOUS
 10
50.000000
 20
50.000000
 30
100.000000
 11
40.000000
 21
50.000000
 31
100.000000
  0
LINE
  8
G40
  6
CONTINUOUS
 10
40.000000
 20
50.000000
 30
100.000000
 11
40.000000
 21
40.000000
 31
100.000000
  0
LINE
  8
G00
  6
DASHED
 10
40.000000
 20
40.000000
 30
100.000000
 11
0.000000
 21
0.000000
 31
200.000000
  0
LINE
  8
G00
  6
DASHED
 10
0.000000
 20
0.000000
 30
200.000000
 11
0.000000
 21
0.000000
 31
100.000000
  0
LINE
  8
G01
  6
CONTINUOUS
 10
0.000000
 20
0.000000
 30
100.000000
 11
30.000000
 21
30.000000
 31
100.000000
  0
LINE
  8
G00
  6
DASHED
 10
0.060000
 20
0.000000
 30
100.000000
 11
60.000000
 21
0.000000
 31
100.000000
  0
LINE
  8
G00
  6
DASHED
 10
60.000000
 20
0.000000
 30
100.000000
 11
60.000000
 21
0.000000
 31
2.000000
  0
LINE
  8
G01Z
  6
CONTINUOUS
 10
60.000000
 20
0.000000
 30
2.000000
 11
60.000000
 21
0.000000
 31
-10.000000
  0
CIRCLE
  8
G81
  6
CONTINUOUS
 10
60.000000
 20
0.000000
 30
2.000000
 40
4.000000
 39
-12.000000
  0
LINE
  8
G00
  6
DASHED
 10
60.000000
 20
0.000000
 30
2.000000
 11
70.000000
 21
0.000000
 31
2.000000
  0
LINE
  8
G01Z
  6
CONTINUOUS
 10
70.000000
 20
0.000000
 30
2.000000
 11
70.000000
 21
0.000000
 31
-10.000000
  0
CIRCLE
  8
G81
  6
CONTINUOUS
 10
70.000000
 20
0.000000
 30
2.000000
 40
4.000000
 39
-12.000000
  0
LINE
  8
G00
  6
DASHED
 10
70.000000
 20
0.000000
 30
2.000000
 11
80.000000
 21
0.000000
 31
2.000000
  0
LINE
  8
G01Z
  6
CONTINUOUS
 10
80.000000
 20
0.000000
 30
2.000000
 11
80.000000
 21
0.000000
 31
-10.000000
  0
CIRCLE
  8
G81
  6
CONTINUOUS
 10
80.000000
 20
0.000000
 30
2.000000
 40
4.000000
 39
-12.000000
  0
LINE
  8
G00
  6
DASHED
 10
0.060000
 20
20.000000
 30
2.000000
 11
60.000000
 21
20.000000
 31
2.000000
  0
LINE
  8
G00
  6
DASHED
 10
60.000000
 20
20.000000
 30
2.000000
 11
60.000000
 21
20.000000
 31
-20.000000
  0
LINE
  8
G01Z
  6
CONTINUOUS
 10
60.000000
 20
20.000000
 30
-20.000000
 11
60.000000
 21
20.000000
 31
-10.000000
  0
CIRCLE
  8
G81
  6
CONTINUOUS
 10
60.000000
 20
20.000000
 30
-20.000000
 40
4.000000
 39
10.000000
  0
LINE
  8
G00
  6
DASHED
 10
60.000000
 20
20.000000
 30
-20.000000
 11
70.000000
 21
20.000000
 31
-20.000000
  0
LINE
  8
G01Z
  6
CONTINUOUS
 10
70.000000
 20
20.000000
 30
-20.000000
 11
70.000000
 21
20.000000
 31
-10.000000
  0
CIRCLE
  8
G81
  6
CONTINUOUS
 10
70.000000
 20
20.000000
 30
-20.000000
 40
4.000000
 39
10.000000
  0
LINE
  8
G00
  6
DASHED
 10
70.000000
 20
20.000000
 30
-20.000000
 11
80.000000
 21
20.000000
 31
-20.000000
  0
LINE
  8
G01Z
  6
CONTINUOUS
 10
80.000000
 20
20.000000
 30
-20.000000
 11
80.000000
 21
20.000000
 31
-10.000000
  0
CIRCLE
  8
G81
  6
CONTINUOUS
 10
80.000000
 20
20.000000
 30
-20.000000
 40
4.000000
 39
10.000000
  0
LINE
  8
G00
  6
DASHED
 10
80.000000
 20
20.000000
 30
-20.000000
 11
0.000000
 21
0.000000
 31
200.000000
  0
LINE
  8
G00
  6
DASHED
 10
0.000000
 20
0.000000
 30
200.000000
 11
0.000000
 21
0.000000
 31
100.000000
  0
LINE
  8
G00
  6
DASHED
 10
0.000000
 20
0.000000
 30
100.000000
 11
0.000000
 21
0.000000
 31
50.000000
  0
LINE
  8
G01
  6
CONTINUOUS
 10
0.000000
 20
0.000000
 30
50.000000
 11
20.000000
 21
0.000000
 31
50.000000
  0
LINE
  8
G42
  6
CONTINUOUS
 10
20.000000
 20
0.000000
 30
50.000000
 11
20.000000
 21
15.000000
 31
50.000000
  0
LINE
  8
G42
  6
CONTINUOUS
 10
20.000000
 20
15.000000
 30
50.000000
 11
30.000000
 21
15.000000
 31
50.000000
  0
LINE
  8
G42
  6
CONTINUOUS
 10
30.000000
 20
15.000000
 30
50.000000
 11
30.000000
 21
20.000000
 31
50.000000
  0
ARC
  8
G42
  6
CONTINUOUS
 10
32.500000
 20
20.000000
 30
50.000000
 40
2.500000
 50
0.000000
 51
180.000000
210
0.000000
220
0.000000
230
1.000000
  0
LINE
  8
G42
  6
CONTINUOUS
 10
35.000000
 20
20.000000
 30
50.000000
 11
40.000000
 21
20.000000
 31
50.000000
  0
LINE
  8
G40
  6
CONTINUOUS
 10
40.000000
 20
20.000000
 30
50.000000
 11
40.000000
 21
0.000000
 31
50.000000
  0
LINE
  8
G00
  6
DASHED
 10
40.000000
 20
0.000000
 30
50.000000
 11
0.000000
 21
0.000000
 31
200.000000
  0
LINE
  8
G00
  6
DASHED
 10
0.000000
 20
0.000000
 30
200.000000
 11
0.000000
 21
0.000000
 31
100.000000
  0
LINE
  8
G00
  6
DASHED
 10
0.000000
 20
0.000000
 30
100.000000
 11
0.000000
 21
0.000000
 31
60.000000
  0
LINE
  8
G01
  6
CONTINUOUS
 10
0.000000
 20
0.000000
 30
60.000000
 11
20.000000
 21
0.000000
 31
60.000000
  0
LINE
  8
G42
  6
CONTINUOUS
 10
20.000000
 20
0.000000
 30
60.000000
 11
20.000000
 21
15.000000
 31
60.000000
  0
LINE
  8
G42
  6
CONTINUOUS
 10
20.000000
 20
15.000000
 30
60.000000
 11
30.000000
 21
15.000000
 31
60.000000
  0
LINE
  8
G42
  6
CONTINUOUS
 10
30.000000
 20
15.000000
 30
60.000000
 11
30.000000
 21
20.000000
 31
60.000000
  0
ARC
  8
G42
  6
CONTINUOUS
 10
32.500000
 20
20.000000
 30
60.000000
 40
2.500000
 50
0.000000
 51
180.000000
210
0.000000
220
0.000000
230
1.000000
  0
LINE
  8
G42
  6
CONTINUOUS
 10
35.000000
 20
20.000000
 30
60.000000
 11
40.000000
 21
20.000000
 31
60.000000
  0
LINE
  8
G40
  6
CONTINUOUS
 10
40.000000
 20
20.000000
 30
60.000000
 11
40.000000
 21
0.000000
 31
60.000000
  0
LINE
  8
G00
  6
DASHED
 10
40.000000
 20
0.000000
 30
60.000000
 11
0.000000
 21
0.000000
 31
200.000000
  0
LINE
  8
G00
  6
DASHED
 10
0.000000
 20
0.000000
 30
200.000000
 11
0.000000
 21
0.000000
 31
100.000000
  0
LINE
  8
G00
  6
DASHED
 10
0.000000
 20
0.000000
 30
100.000000
 11
0.000000
 21
0.000000
 31
70.000000
  0
LINE
  8
G01
  6
CONTINUOUS
 10
0.000000
 20
0.000000
 30
70.000000
 11
20.000000
 21
0.000000
 31
70.000000
  0
LINE
  8
G42
  6
CONTINUOUS
 10
20.000000
 20
0.000000
 30
70.000000
 11
20.000000
 21
15.000000
 31
70.000000
  0
LINE
  8
G42
  6
CONTINUOUS
 10
20.000000
 20
15.000000
 30
70.000000
 11
30.000000
 21
15.000000
 31
70.000000
  0
LINE
  8
G42
  6
CONTINUOUS
 10
30.000000
 20
15.000000
 30
70.000000
 11
30.000000
 21
40.000000
 31
70.000000
  0
LINE
  8
G42
  6
CONTINUOUS
 10
30.000000
 20
40.000000
 30
70.000000
 11
45.000000
 21
40.000000
 31
70.000000
  0
LINE
  8
G42
  6
CONTINUOUS
 10
45.000000
 20
40.000000
 30
70.000000
 11
45.000000
 21
30.000000
 31
70.000000
  0
LINE
  8
G42
  6
CONTINUOUS
 10
45.000000
 20
30.000000
 30
70.000000
 11
35.000000
 21
30.000000
 31
70.000000
  0
LINE
  8
G42
  6
CONTINUOUS
 10
35.000000
 20
30.000000
 30
70.000000
 11
35.000000
 21
15.000000
 31
70.000000
  0
LINE
  8
G42
  6
CONTINUOUS
 10
35.000000
 20
15.000000
 30
70.000000
 11
40.000000
 21
15.000000
 31
70.000000
  0
LINE
  8
G40
  6
CONTINUOUS
 10
40.000000
 20
15.000000
 30
70.000000
 11
40.000000
 21
0.000000
 31
70.000000
  0
LINE
  8
G00
  6
DASHED
 10
40.000000
 20
0.000000
 30
70.000000
 11
0.000000
 21
0.000000
 31
200.000000
  0
LINE
  8
G00
  6
DASHED
 10
0.000000
 20
0.000000
 30
200.000000
 11
0.000000
 21
0.000000
 31
100.000000
  0
LINE
  8
G00
  6
DASHED
 10
0.000000
 20
0.000000
 30
100.000000
 11
0.000000
 21
0.000000
 31
80.000000
  0
LINE
  8
G01
  6
CONTINUOUS
 10
0.000000
 20
0.000000
 30
80.000000
 11
20.000000
 21
0.000000
 31
80.000000
  0
LINE
  8
G42
  6
CONTINUOUS
 10
20.000000
 20
0.000000
 30
80.000000
 11
20.000000
 21
15.000000
 31
80.000000
  0
LINE
  8
G42
  6
CONTINUOUS
 10
20.000000
 20
15.000000
 30
80.000000
 11
30.000000
 21
15.000000
 31
80.000000
  0
ARC
  8
G42
  6
CONTINUOUS
 10
31.500000
 20
15.000000
 30
80.000000
 40
1.500000
 50
0.000000
 51
180.000000
210
0.000000
220
0.000000
230
1.000000
  0
LINE
  8
G42
  6
CONTINUOUS
 10
33.000000
 20
15.000000
 30
80.000000
 11
40.000000
 21
15.000000
 31
80.000000
  0
LINE
  8
G40
  6
CONTINUOUS
 10
40.000000
 20
15.000000
 30
80.000000
 11
40.000000
 21
0.000000
 31
80.000000
  0
LINE
  8
G00
  6
DASHED
 10
40.000000
 20
0.000000
 30
80.000000
 11
0.000000
 21
0.000000
 31
200.000000
  0
LINE
  8
G00
  6
DASHED
 10
0.000000
 20
0.000000
 30
200.000000
 11
0.000000
 21
0.000000
 31
100.000000
  0
LINE
  8
G00
  6
DASHED
 10
0.000000
 20
0.000000
 30
100.000000
 11
0.000000
 21
0.000000
 31
90.000000
  0
LINE
  8
G01
  6
CONTINUOUS
 10
0.000000
 20
0.000000
 30
90.000000
 11
20.000000
 21
0.000000
 31
90.000000
  0
LINE
  8
G42
  6
CONTINUOUS
 10
20.000000
 20
0.000000
 30
90.000000
 11
20.000000
 21
15.000000
 31
90.000000
  0
LINE
  8
G42
  6
CONTINUOUS
 10
20.000000
 20
15.000000
 30
90.000000
 11
30.000000
 21
15.000000
 31
90.000000
  0
LINE
  8
G42
  6
CONTINUOUS
 10
30.000000
 20
15.000000
 30
90.000000
 11
40.000000
 21
15.000000
 31
90.000000
  0
LINE
  8
G40
  6
CONTINUOUS
 10
40.000000
 20
15.000000
 30
90.000000
 11
40.000000
 21
0.000000
 31
90.000000
  0
LINE
  8
G00
  6
DASHED
 10
40.000000
 20
0.000000
 30
90.000000
 11
0.000000
 21
0.000000
 31
200.000000
  0
LINE
  8
G00
  6
DASHED
 10
0.000000
 20
0.000000
 30
200.000000
 11
10.000000
 21
0.000000
 31
200.000000
  0
LINE
  8
G00
  6
DASHED
 10
10.000000
 20
0.000000
 30
200.000000
 11
0.000000
 21
0.000000
 31
200.000000
  0
LINE
  8
G00
  6
DASHED
 10
0.000000
 20
0.000000
 30
200.000000
 11
10.000000
 21
0.000000
 31
200.000000
  0
ARC
  8
G02
  6
CONTINUOUS
 10
12.500000
 20
0.000000
 30
200.000000
 40
2.500000
 50
0.000000
 51
180.000000
210
0.000000
220
0.000000
230
1.000000
  0
ARC
  8
G02
  6
CONTINUOUS
 10
17.500000
 20
0.000000
 30
200.000000
 40
2.000000
 50
0.000000
 51
180.000000
210
0.000000
220
0.000000
230
1.000000
  0
LINE
  8
G00
  6
DASHED
 10
20.000000
 20
0.000000
 30
200.000000
 11
0.000000
 21
0.000000
 31
200.000000
  0
LINE
  8
G41D
  6
CONTINUOUS
 10
30.000000
 20
30.000000
 30
100.000000
 11
36.000000
 21
30.000000
 31
100.000000
  0
LINE
  8
G41D
  6
CONTINUOUS
 10
36.000000
 20
30.000000
 30
100.000000
 11
36.000000
 21
36.000000
 31
100.000000
  0
LINE
  8
G41D
  6
CONTINUOUS
 10
36.000000
 20
36.000000
 30
100.000000
 11
30.000000
 21
36.000000
 31
100.000000
  0
LINE
  8
G40
  6
CONTINUOUS
 10
30.000000
 20
36.000000
 30
100.000000
 11
30.000000
 21
30.000000
 31
100.000000
  0
LINE
  8
G41D
  6
CONTINUOUS
 10
40.000000
 20
40.000000
 30
100.000000
 11
46.000000
 21
40.000000
 31
100.000000
  0
LINE
  8
G41D
  6
CONTINUOUS
 10
46.000000
 20
40.000000
 30
100.000000
 11
46.000000
 21
46.000000
 31
100.000000
  0
LINE
  8
G41D
  6
CONTINUOUS
 10
46.000000
 20
46.000000
 30
100.000000
 11
40.000000
 21
46.000000
 31
100.000000
  0
LINE
  8
G40
  6
CONTINUOUS
 10
40.000000
 20
46.000000
 30
100.000000
 11
40.000000
 21
40.000000
 31
100.000000
  0
LINE
  8
G42D
  6
CONTINUOUS
 10
20.000000
 20
0.000000
 30
50.000000
 11
20.000000
 21
11.000000
 31
50.000000
  0
LINE
  8
G42D
  6
CONTINUOUS
 10
20.000000
 20
11.000000
 30
50.000000
 11
30.000000
 21
11.000000
 31
50.000000
  0
LINE
  8
G42D
  6
CONTINUOUS
 10
30.000000
 20
11.000000
 30
50.000000
 11
34.000000
 21
11.000000
 31
50.000000
  0
LINE
  8
G42D
  6
CONTINUOUS
 10
34.000000
 20
11.000000
 30
50.000000
 11
34.000000
 21
15.000000
 31
50.000000
  0
LINE
  8
G42D
  6
CONTINUOUS
 10
34.000000
 20
15.000000
 30
50.000000
 11
34.000000
 21
16.000000
 31
50.000000
  0
LINE
  8
G42D
  6
CONTINUOUS
 10
34.000000
 20
16.000000
 30
50.000000
 11
35.000000
 21
16.000000
 31
50.000000
  0
LINE
  8
G42D
  6
CONTINUOUS
 10
35.000000
 20
16.000000
 30
50.000000
 11
40.000000
 21
16.000000
 31
50.000000
  0
LINE
  8
G40
  6
CONTINUOUS
 10
40.000000
 20
16.000000
 30
50.000000
 11
40.000000
 21
0.000000
 31
50.000000
  0
LINE
  8
G42D
  6
CONTINUOUS
 10
20.000000
 20
0.000000
 30
60.000000
 11
20.000000
 21
11.000000
 31
60.000000
  0
LINE
  8
G42D
  6
CONTINUOUS
 10
20.000000
 20
11.000000
 30
60.000000
 11
30.000000
 21
11.000000
 31
60.000000
  0
LINE
  8
G42D
  6
CONTINUOUS
 10
30.000000
 20
11.000000
 30
60.000000
 11
34.000000
 21
11.000000
 31
60.000000
  0
LINE
  8
G42D
  6
CONTINUOUS
 10
34.000000
 20
11.000000
 30
60.000000
 11
34.000000
 21
15.000000
 31
60.000000
  0
LINE
  8
G42D
  6
CONTINUOUS
 10
34.000000
 20
15.000000
 30
60.000000
 11
34.000000
 21
16.000000
 31
60.000000
  0
LINE
  8
G42D
  6
CONTINUOUS
 10
34.000000
 20
16.000000
 30
60.000000
 11
35.000000
 21
16.000000
 31
60.000000
  0
LINE
  8
G42D
  6
CONTINUOUS
 10
35.000000
 20
16.000000
 30
60.000000
 11
40.000000
 21
16.000000
 31
60.000000
  0
LINE
  8
G40
  6
CONTINUOUS
 10
40.000000
 20
16.000000
 30
60.000000
 11
40.000000
 21
0.000000
 31
60.000000
  0
LINE
  8
G42D
  6
CONTINUOUS
 10
20.000000
 20
0.000000
 30
70.000000
 11
20.000000
 21
11.000000
 31
70.000000
  0
LINE
  8
G42D
  6
CONTINUOUS
 10
20.000000
 20
11.000000
 30
70.000000
 11
30.000000
 21
11.000000
 31
70.000000
  0
LINE
  8
G42D
  6
CONTINUOUS
 10
30.000000
 20
11.000000
 30
70.000000
 11
34.000000
 21
11.000000
 31
70.000000
  0
LINE
  8
G42D
  6
CONTINUOUS
 10
34.000000
 20
11.000000
 30
70.000000
 11
34.000000
 21
15.000000
 31
70.000000
  0
LINE
  8
G42D
  6
CONTINUOUS
 10
34.000000
 20
15.000000
 30
70.000000
 11
34.000000
 21
36.000000
 31
70.000000
  0
LINE
  8
G42D
  6
CONTINUOUS
 10
34.000000
 20
36.000000
 30
70.000000
 11
41.000000
 21
36.000000
 31
70.000000
  0
LINE
  8
G42D
  6
CONTINUOUS
 10
41.000000
 20
36.000000
 30
70.000000
 11
41.000000
 21
34.000000
 31
70.000000
  0
LINE
  8
G42D
  6
CONTINUOUS
 10
41.000000
 20
34.000000
 30
70.000000
 11
35.000000
 21
34.000000
 31
70.000000
  0
LINE
  8
G42D
  6
CONTINUOUS
 10
35.000000
 20
34.000000
 30
70.000000
 11
31.000000
 21
34.000000
 31
70.000000
  0
LINE
  8
G42D
  6
CONTINUOUS
 10
31.000000
 20
34.000000
 30
70.000000
 11
31.000000
 21
30.000000
 31
70.000000
  0
LINE
  8
G42D
  6
CONTINUOUS
 10
31.000000
 20
30.000000
 30
70.000000
 11
31.000000
 21
15.000000
 31
70.000000
  0
LINE
  8
G42D
  6
CONTINUOUS
 10
31.000000
 20
15.000000
 30
70.000000
 11
31.000000
 21
11.000000
 31
70.000000
  0
LINE
  8
G42D
  6
CONTINUOUS
 10
31.000000
 20
11.000000
 30
70.000000
 11
35.000000
 21
11.000000
 31
70.000000
  0
LINE
  8
G42D
  6
CONTINUOUS
 10
35.000000
 20
11.000000
 30
70.000000
 11
40.000000
 21
11.000000
 31
70.000000
  0
LINE
  8
G40
  6
CONTINUOUS
 10
40.000000
 20
11.000000
 30
70.000000
 11
40.000000
 21
0.000000
 31
70.000000
  0
LINE
  8
G42D
  6
CONTINUOUS
 10
20.000000
 20
0.000000
 30
80.000000
 11
20.000000
 21
11.000000
 31
80.000000
  0
LINE
  8
G42D
  6
CONTINUOUS
 10
20.000000
 20
11.000000
 30
80.000000
 11
30.000000
 21
11.000000
 31
80.000000
  0
LINE
  8
G42D
  6
CONTINUOUS
 10
30.000000
 20
11.000000
 30
80.000000
 11
34.000000
 21
11.000000
 31
80.000000
  0
LINE
  8
G42D
  6
CONTINUOUS
 10
34.000000
 20
11.000000
 30
80.000000
 11
34.000000
 21
15.000000
 31
80.000000
  0
LINE
  8
G42D
  6
CONTINUOUS
 10
29.000000
 20
15.000000
 30
80.000000
 11
29.000000
 21
11.000000
 31
80.000000
  0
LINE
  8
G42D
  6
CONTINUOUS
 10
29.000000
 20
11.000000
 30
80.000000
 11
33.000000
 21
11.000000
 31
80.000000
  0
LINE
  8
G42D
  6
CONTINUOUS
 10
33.000000
 20
11.000000
 30
80.000000
 11
40.000000
 21
11.000000
 31
80.000000
  0
LINE
  8
G40
  6
CONTINUOUS
 10
40.000000
 20
11.000000
 30
80.000000
 11
40.000000
 21
0.000000
 31
80.000000
  0
LINE
  8
G42D
  6
CONTINUOUS
 10
20.000000
 20
0.000000
 30
90.000000
 11
20.000000
 21
11.000000
 31
90.000000
  0
LINE
  8
G42D
  6
CONTINUOUS
 10
20.000000
 20
11.000000
 30
90.000000
 11
30.000000
 21
11.000000
 31
90.000000
  0
LINE
  8
G42D
  6
CONTINUOUS
 10
30.000000
 20
11.000000
 30
90.000000
 11
40.000000
 21
11.000000
 31
90.000000
  0
LINE
  8
G40
  6
CONTINUOUS
 10
40.000000
 20
11.000000
 30
90.000000
 11
40.000000
 21
0.000000
 31
90.000000
  0
ENDSEC
  0
EOF
